<svg width="20" height="20" viewBox="0 0 20 20" fill="none" xmlns="http://www.w3.org/2000/svg">
  <path fill-rule="evenodd" clip-rule="evenodd" d="M3.5 2C2.67157 2 2 2.67157 2 3.5V6C2 8.20914 3.79086 10 6 10H6.26C6.88457 11.4116 8.16365 12.4406 9.725 12.6957V15H8C7.44772 15 7 15.4477 7 16V17.5C7 18.0523 7.44772 18.5 8 18.5H12C12.5523 18.5 13 18.0523 13 17.5V16C13 15.4477 12.5523 15 12 15H10.275V12.6957C11.8364 12.4406 13.1154 11.4116 13.74 10H14C16.2091 10 18 8.20914 18 6V3.5C18 2.67157 17.3284 2 16.5 2H3.5ZM3.75 3.75H5.25V8.25C4.42157 8.25 3.75 7.57843 3.75 6.75V3.75ZM14.75 8.25V3.75H16.25V6.75C16.25 7.57843 15.5784 8.25 14.75 8.25ZM7 3.75H13V8C13 9.65685 11.6569 11 10 11C8.34315 11 7 9.65685 7 8V3.75Z" fill="#CFD6DC"/>
</svg>
