<svg width="187" height="188" viewBox="0 0 187 188" fill="none" xmlns="http://www.w3.org/2000/svg">
<g clip-path="url(#clip0_8_169)">
<path d="M187 0H0V188H187V0Z" fill="#9245F7"/>
<path d="M139.292 75.8972C143.785 75.8972 147.428 72.2349 147.428 67.7172C147.428 63.1995 143.785 59.5372 139.292 59.5372C134.798 59.5372 131.155 63.1995 131.155 67.7172C131.155 72.2349 134.798 75.8972 139.292 75.8972Z" fill="#EC4923"/>
<path d="M120.148 74.0289L69.6312 74.0358C69.5582 73.6627 69.8513 73.4297 69.9779 73.1271L72.259 67.679L75.8889 59.0251L78.8965 51.7959L79.3455 50.8824C81.4161 47.2928 84.6633 44.6138 88.674 43.427C92.5485 42.2804 96.6381 42.1786 100.543 43.2087C105.337 44.4728 109.217 47.8254 111.133 52.4118L118.799 70.7595L119.14 71.4674L120.148 74.0309V74.0289Z" fill="#F8F3F9"/>
<path d="M124.944 80.3778L74.5877 80.4062C73.939 80.4062 73.4345 80.5658 73.0956 81.0858C72.7567 81.6057 72.8219 82.2774 73.1384 82.768C73.4472 83.2458 73.9001 83.4994 74.5887 83.4984L126.245 83.469C126.707 84.6215 126.325 85.8758 125.407 86.7267C123.602 88.4001 121.634 89.8836 119.401 91.0478C114.692 93.5026 108.948 94.141 104.256 91.5354L99.0866 88.6635C96.6547 87.3123 93.9062 87.2712 91.3739 88.4099L87.628 90.4456C86.4476 91.087 85.385 91.789 84.112 92.2718C77.7833 94.6697 71.062 92.2541 66.0461 88.0476C65.6701 87.7323 65.3098 87.5228 65.0137 87.1272C64.8335 86.8863 64.5803 86.7355 64.3095 86.7228C64.4576 86.3733 63.357 85.7084 63.431 84.4463C63.469 83.7873 63.7436 83.3055 63.9686 82.7308L65.9136 77.7644C66.0743 77.551 66.1912 77.5128 66.5438 77.5128L123.261 77.5157C123.563 77.5157 123.684 77.5392 123.867 77.4237L124.943 80.3768L124.944 80.3778Z" fill="#8FD31A"/>
<path d="M69.6312 74.0358L120.148 74.0289C121.319 74.0289 122.598 74.3334 123.11 75.5799L123.868 77.4237C123.685 77.5392 123.564 77.5157 123.262 77.5157L66.5448 77.5128C66.1922 77.5128 66.0753 77.551 65.9146 77.7644L66.4542 76.2438C66.986 74.7437 68.2024 74.0348 69.6312 74.0348V74.0358Z" fill="#A5E323"/>
<path d="M124.944 80.3778L125.463 81.5156L126.246 83.469L74.5897 83.4984C73.9011 83.4984 73.4472 83.2448 73.1394 82.768C72.8229 82.2774 72.7596 81.6018 73.0966 81.0857C73.4336 80.5697 73.94 80.4072 74.5887 80.4062L124.945 80.3778H124.944Z" fill="#EC4923"/>
<path d="M64.3105 86.7228C64.5812 86.7356 64.8345 86.8873 65.0147 87.1272C65.3107 87.5228 65.6701 87.7324 66.0471 88.0476C71.0639 92.2541 77.7842 94.6697 84.113 92.2718C85.386 91.789 86.4486 91.087 87.629 90.4456L91.3748 88.4099C93.9081 87.2712 96.6556 87.3123 99.0876 88.6635L104.257 91.5354C108.949 94.142 114.693 93.5026 119.402 91.0478C121.636 89.8836 123.603 88.4001 125.408 86.7267L128.706 94.4465C128.692 94.5043 128.704 94.5444 128.728 94.5669C128.728 94.5669 128.768 94.6002 128.868 94.562C131.28 93.6357 134.166 87.7323 134.166 87.7323C136.604 82.7445 136.791 82.1805 137.752 81.5998C139.555 80.51 142.013 80.6138 143.854 81.5979C146.667 83.1019 147.299 86.2039 147.383 87.2633C147.498 88.7056 147.394 90.0451 147.14 91.4777C145.849 98.7392 141.185 105.629 135.041 109.631C134.979 109.673 134.91 109.692 134.901 109.727C134.893 109.758 134.984 109.815 135.012 109.885L141.807 126.474C143.348 130.236 143.018 134.552 140.983 138.032C138.752 141.846 134.982 144.292 130.72 145.18C126.492 146.06 122.162 145.133 118.743 142.508C116.885 141.081 115.571 139.285 114.664 137.13L110.52 127.286C109.505 124.875 107.135 123.116 104.483 123.114L85.7863 123.096C83.1663 123.094 80.5493 124.341 79.4964 126.805L76.3983 134.054L75.1974 136.958C72.4723 143.548 65.7256 146.616 58.9274 145.134C56.4769 144.599 54.2719 143.628 52.3084 142.059C49.5112 139.825 47.5954 136.625 47.2195 133.039C47.1026 131.921 46.826 130.025 47.6324 127.811C48.1895 126.282 49.0252 125.206 49.6037 124.573C49.4002 125.039 48.5694 126.809 46.9458 127.125C46.5367 127.205 46.1676 127.155 45.7858 127.096C42.637 126.612 40.056 124.154 39.6362 120.964C39.4541 119.584 39.6849 118.332 40.1602 117.062L41.0387 115.268C41.9805 113.58 43.2593 112.335 44.6336 111.003L60.5724 95.5578L64.3124 86.7228H64.3105ZM106.883 99.6204C99.9379 105.532 89.9217 105.285 83.0358 99.4461C82.3199 98.839 81.4356 98.8674 80.7684 99.4735C80.185 100.004 79.9649 101.079 80.6613 101.729C83.1527 104.052 86.1953 105.635 89.4834 106.504C96.6021 108.384 104.122 106.662 109.553 101.649C110.207 101.045 109.785 99.8495 109.284 99.4344C108.49 98.7754 107.651 98.9654 106.882 99.6194L106.883 99.6204Z" fill="#F8F3F9"/>
<path d="M106.883 99.6204C107.652 98.9663 108.491 98.7754 109.285 99.4353C109.785 99.8505 110.208 101.046 109.554 101.65C104.123 106.662 96.604 108.384 89.4844 106.505C86.1963 105.637 83.1537 104.053 80.6623 101.73C79.9659 101.08 80.185 100.005 80.7694 99.4745C81.4366 98.8684 82.3209 98.84 83.0368 99.4471C89.9227 105.287 99.9389 105.533 106.884 99.6214L106.883 99.6204Z" fill="#1B0735"/>
</g>
<defs>
<clipPath id="clip0_8_169">
<path d="M0 0H187V188H0V0Z" fill="white"/>
</clipPath>
</defs>
</svg>
